# xmcd
#
# Track frame offsets: 
#        150
#        10510
#        20280
#        31312
#        41102
#        51102
#        60977
#        76867
#        88792
#        100652
#        112810
#        124082
#        136415
#        150855
#        162340
#        171895
#        185630
#        197020
#        207775
#        219415
#        231562
#        247272
#        261847
#        276890
#        289697
#        299305
#        310262
#        319332
#
# Disc length: 4425 seconds
#
# Revision: 2
# Processed by: cddbd v1.5.2PL0 Copyright (c) Steve Scherf et al.
# Submitted via: ExactAudioCopyFreeDBPlugin 1.0
#
DISCID=8811471c
DTITLE=Mac Wiseman - 'Tis Sweet To Be Remembered  CD5
DYEAR=2003
DGENRE=Bluegrass
TTITLE0=I Like This Kind Of Music [#]
TTITLE1=Now That You Have Me (You Don't Want Me)
TTITLE2=I'm The Talk Of The Town [#]
TTITLE3=Glad Rags
TTITLE4=The Prisoner's Song
TTITLE5=There'll Be No Teardrops Tonight [#]
TTITLE6=Tell Mother I'll Be There
TTITLE7=The Beautiful Garden of Prayer
TTITLE8=Beautiful Isle Of Somewhere
TTITLE9=Peace In The Valley
TTITLE10=I Heard My Mother Call My Name In Prayer
TTITLE11=Bringing The Sheaves
TTITLE12=Where Is My Baby Tonight
TTITLE13=If I Could Hear My Mother Pray Again
TTITLE14=Shall We Gather At The River
TTITLE15=Lord I'm Coming Home
TTITLE16=Footprints In The Snow
TTITLE17=Just Outside
TTITLE18=Pistol Packin' Preacher
TTITLE19=What's Gonna Happen To Me
TTITLE20=Ballad Of The Little Box Of Pine
TTITLE21=When The Snowflakes Fall
TTITLE22=I'll Remember You, Love, In My Prayers
TTITLE23=Free From The Old Chain Gang
TTITLE24=Two More Years And I'll Be Free
TTITLE25=Bluegrass Fiesta
TTITLE26=Cotton Fields
TTITLE27=Sing Little Birdie
EXTD=
EXTT0=
EXTT1=
EXTT2=
EXTT3=
EXTT4=
EXTT5=
EXTT6=
EXTT7=
EXTT8=
EXTT9=
EXTT10=
EXTT11=
EXTT12=
EXTT13=
EXTT14=
EXTT15=
EXTT16=
EXTT17=
EXTT18=
EXTT19=
EXTT20=
EXTT21=
EXTT22=
EXTT23=
EXTT24=
EXTT25=
EXTT26=
EXTT27=
PLAYORDER=
